<svg width="48" height="48" viewBox="0 0 48 48" fill="none" xmlns="http://www.w3.org/2000/svg">
<g clip-path="url(#clip0_82_5583)">
<rect width="48" height="48" rx="24" fill="white"/>
<path d="M0 0H100V100H0V0Z" fill="#0C0C0C"/>
<path fill-rule="evenodd" clip-rule="evenodd" d="M28.8179 20.9061C30.2899 21.9525 32.0527 22.5116 33.8587 22.5048V18.9256C33.5037 18.9266 33.1496 18.8886 32.8028 18.8123V21.6637C30.9928 21.6669 29.2274 21.1014 27.7561 20.0471V27.4084C27.7517 28.6163 27.4204 29.8005 26.7975 30.8354C26.1745 31.8703 25.2831 32.7174 24.2178 33.2867C23.1525 33.8561 21.9529 34.1265 20.7464 34.0694C19.5398 34.0123 18.3712 33.6297 17.3644 32.9622C18.2956 33.9044 19.4855 34.549 20.7833 34.8145C22.0812 35.0801 23.4286 34.9545 24.6551 34.4537C25.8815 33.9529 26.9317 33.0994 27.6728 32.0014C28.4138 30.9033 28.8124 29.61 28.8179 28.2853V20.9061ZM30.1244 17.2553C29.3758 16.4439 28.9165 15.4079 28.8179 14.3084V13.8431H27.8158C27.9396 14.542 28.2092 15.207 28.607 15.7949C29.0047 16.3827 29.5217 16.8803 30.1244 17.2553ZM19.6849 30.1286C19.3376 29.6744 19.1247 29.1318 19.0706 28.5625C19.0164 27.9933 19.1231 27.4202 19.3786 26.9087C19.6341 26.3971 20.028 25.9675 20.5157 25.6688C21.0033 25.3701 21.5649 25.2143 22.1367 25.2191C22.4524 25.219 22.7662 25.2673 23.0673 25.3623V21.6637C22.7154 21.6171 22.3604 21.5972 22.0055 21.6041V24.4794C21.2724 24.2476 20.479 24.3003 19.783 24.627C19.087 24.9536 18.5394 25.5303 18.2492 26.2422C17.959 26.9542 17.9475 27.7493 18.2168 28.4694C18.4861 29.1895 19.0166 29.7818 19.7028 30.1286H19.6849Z" fill="#EE1D52"/>
<path fill-rule="evenodd" clip-rule="evenodd" d="M27.7556 20.0232C29.2269 21.0776 30.9922 21.6431 32.8023 21.6399V18.7884C31.771 18.5703 30.8342 18.0341 30.1239 17.2553C29.5212 16.8803 29.0042 16.3827 28.6065 15.7949C28.2087 15.207 27.9391 14.542 27.8152 13.8431H25.1785V28.2853C25.1761 28.9246 24.9735 29.547 24.5992 30.0652C24.225 30.5835 23.6978 30.9715 23.0917 31.1749C22.4857 31.3782 21.8311 31.3866 21.22 31.199C20.6089 31.0113 20.0719 30.637 19.6844 30.1286C19.0703 29.8187 18.5785 29.311 18.2883 28.6873C17.9982 28.0637 17.9266 27.3604 18.0851 26.6911C18.2437 26.0217 18.6231 25.4253 19.1622 24.9981C19.7013 24.5708 20.3686 24.3377 21.0565 24.3362C21.3721 24.3372 21.6857 24.3855 21.9871 24.4794V21.6041C20.6852 21.6353 19.4207 22.046 18.349 22.7857C17.2772 23.5255 16.4447 24.5621 15.9538 25.7682C15.4628 26.9744 15.3347 28.2977 15.5852 29.5756C15.8357 30.8536 16.4539 32.0306 17.3639 32.9622C18.3708 33.6344 19.5413 34.021 20.7506 34.0807C21.9599 34.1403 23.1627 33.8708 24.2309 33.3009C25.2992 32.731 26.1928 31.8819 26.8166 30.8443C27.4405 29.8066 27.7712 28.6191 27.7735 27.4084L27.7556 20.0232Z" fill="#E3E3E3"/>
<path fill-rule="evenodd" clip-rule="evenodd" d="M32.8023 18.7884L32.8026 18.0186C31.8556 18.0226 30.927 17.7581 30.1244 17.2553C30.8329 18.0364 31.77 18.573 32.8023 18.7884ZM27.8158 13.8431C27.8158 13.7059 27.7738 13.5625 27.7559 13.4253V12.96H24.117V27.4081C24.1139 28.2171 23.7899 28.9919 23.2161 29.5622C22.6424 30.1326 21.8658 30.4521 21.0568 30.4505C20.5804 30.4529 20.1105 30.3427 19.6849 30.1286C20.0724 30.637 20.6089 31.0113 21.22 31.199C21.8311 31.3866 22.4857 31.3782 23.0917 31.1749C23.6978 30.9715 24.225 30.5835 24.5992 30.0652C24.9735 29.547 25.1761 28.9246 25.1785 28.2853V13.8431H27.8158ZM21.9874 21.5978V20.7806C20.49 20.5772 18.9679 20.8869 17.6691 21.6593C16.3703 22.4317 15.3714 23.6213 14.8352 25.0341C14.299 26.4469 14.2571 27.9996 14.7163 29.4393C15.1756 30.879 16.1091 32.1209 17.3644 32.9622C16.4613 32.0284 15.8495 30.8517 15.6041 29.576C15.3588 28.3004 15.4902 26.9809 15.9825 25.7788C16.4747 24.5767 17.3064 23.5439 18.376 22.8067C19.4456 22.0696 20.7067 21.6599 22.0053 21.6277L21.9874 21.5978Z" fill="#69C9D0"/>
</g>
<defs>
<clipPath id="clip0_82_5583">
<rect width="48" height="48" rx="24" fill="white"/>
</clipPath>
</defs>
</svg>
