<svg width="100" height="100" viewBox="0 0 100 100" fill="none" xmlns="http://www.w3.org/2000/svg">
<path d="M0 50C0 22.3858 22.3858 0 50 0C77.6142 0 100 22.3858 100 50C100 77.6142 77.6142 100 50 100C22.3858 100 0 77.6142 0 50Z" fill="#FFE812"/>
<path d="M49.9998 22.9167C31.5903 22.9167 16.6665 34.6838 16.6665 49.1988C16.6665 58.583 22.9057 66.8174 32.2909 71.4672C31.7803 73.228 29.0098 82.7953 28.8994 83.547C28.8994 83.547 28.8332 84.1115 29.1988 84.327C29.5646 84.5424 29.9946 84.3751 29.9946 84.3751C31.0434 84.2286 42.1559 76.4228 44.0794 75.0674C46.0009 75.3395 47.9794 75.4809 49.9998 75.4809C68.4094 75.4809 83.3332 63.7142 83.3332 49.1988C83.3332 34.6838 68.4094 22.9167 49.9998 22.9167Z" fill="#381F1F"/>
<path fill-rule="evenodd" clip-rule="evenodd" d="M31.5706 58.3735C30.51 58.3735 29.6475 57.5497 29.6475 56.5368V45.1122H26.6468C25.6062 45.1122 24.7598 44.2672 24.7598 43.2291C24.7598 42.191 25.6064 41.3462 26.6468 41.3462H36.4943C37.535 41.3462 38.3814 42.191 38.3814 43.2291C38.3814 44.2672 37.5348 45.1122 36.4943 45.1122H33.4937V56.5368C33.4937 57.5497 32.6312 58.3735 31.5706 58.3735ZM48.4333 58.3485C47.6314 58.3485 47.0181 58.0229 46.8331 57.4991L45.8808 55.0062L40.0166 55.0058L39.0639 57.5004C38.8796 58.0231 38.2664 58.3485 37.4646 58.3485C37.0427 58.3489 36.6256 58.2583 36.2421 58.0831C35.7118 57.8385 35.2023 57.166 35.7862 55.3522L40.3862 43.2445C40.7104 42.3237 41.6946 41.3749 42.9473 41.3464C44.2033 41.3747 45.1875 42.3237 45.5123 43.2464L50.1104 55.3487C50.6956 57.1666 50.186 57.8395 49.6558 58.0833C49.2721 58.2583 48.8552 58.3487 48.4333 58.3485ZM42.9487 46.1431L44.8696 51.5997H41.0279L42.9487 46.1431ZM53.2052 58.0931C52.1887 58.0931 51.3623 57.302 51.3623 56.3301V43.2693C51.3623 42.2087 52.2429 41.3462 53.3254 41.3462C54.4077 41.3462 55.2885 42.2087 55.2885 43.2693V54.5672H59.375C60.3914 54.5672 61.2181 55.3583 61.2181 56.3301C61.2181 57.302 60.3914 58.0931 59.375 58.0931H53.2052ZM61.966 56.4254C61.966 57.486 62.8285 58.3485 63.8891 58.3485C64.3991 58.3476 64.8881 58.1447 65.2487 57.7841C65.6093 57.4235 65.8123 56.9345 65.8129 56.4243V52.2285L66.4802 51.5612L70.9902 57.5368C71.1687 57.7754 71.4006 57.9687 71.6675 58.1016C71.9341 58.2343 72.2283 58.3026 72.5262 58.3014C72.9441 58.3022 73.3506 58.166 73.6831 57.9131C73.8852 57.7616 74.0552 57.5716 74.1833 57.3539C74.3112 57.1362 74.395 56.8951 74.4291 56.6449C74.4652 56.3947 74.451 56.1401 74.3875 55.8956C74.3241 55.651 74.2129 55.4214 74.06 55.2201L69.3262 48.9491L73.7087 44.5672C74.01 44.2658 74.161 43.8499 74.1331 43.3964C74.1054 42.9468 73.9046 42.5139 73.5677 42.1772C73.2064 41.8164 72.7243 41.6093 72.2443 41.6093C71.8327 41.6093 71.4535 41.7612 71.1777 42.0372L65.8123 47.4026V43.2693C65.8123 42.2087 64.9498 41.3462 63.8891 41.3462C62.8285 41.3462 61.966 42.2087 61.966 43.2693V56.4254Z" fill="#FFE812"/>
</svg>
