<svg width="310" height="66" viewBox="0 0 310 66" fill="none" xmlns="http://www.w3.org/2000/svg">
    <path
        d="M18.0844 30.3056H40.6597V40.9992H18.0844V30.3056ZM19.0629 57.7734H5.22412V8.84851H43.5952V19.5421H19.0629V57.7734Z"
        fill="black" />
    <path
        d="M50.3112 57.7734V8.84851H72.6769C77.15 8.84851 80.9941 9.57074 84.2092 11.0152C87.4709 12.4596 89.987 14.5564 91.7576 17.3055C93.5282 20.0081 94.4135 23.2231 94.4135 26.9507C94.4135 30.6317 93.5282 33.8235 91.7576 36.526C89.987 39.182 87.4709 41.2321 84.2092 42.6766C80.9941 44.0745 77.15 44.7734 72.6769 44.7734H57.9994L64.15 38.9723V57.7734H50.3112ZM80.5748 57.7734L68.4134 39.9508H83.1608L95.392 57.7734H80.5748ZM64.15 40.44L57.9994 34.0798H71.8382C74.7271 34.0798 76.8705 33.4508 78.2683 32.1927C79.7128 30.9346 80.435 29.1873 80.435 26.9507C80.435 24.6676 79.7128 22.897 78.2683 21.6389C76.8705 20.3808 74.7271 19.7518 71.8382 19.7518H57.9994L64.15 13.3915V40.44Z"
        fill="black" />
    <path
        d="M115.013 27.7894H137.728V38.1336H115.013V27.7894ZM115.991 47.0798H141.572V57.7734H102.292V8.84851H140.663V19.5421H115.991V47.0798Z"
        fill="black" />
    <path
        d="M162.215 27.7894H184.931V38.1336H162.215V27.7894ZM163.194 47.0798H188.775V57.7734H149.495V8.84851H187.866V19.5421H163.194V47.0798Z"
        fill="black" />
    <path
        d="M194.252 57.7734V49.1067L223.048 14.9292L224.725 19.8217H194.881V8.84851H237.026V17.5152L208.23 51.6928L206.553 46.8003H238.075V57.7734H194.252Z"
        fill="black" />
    <path
        d="M257.099 27.7894H279.814V38.1336H257.099V27.7894ZM258.078 47.0798H283.659V57.7734H244.379V8.84851H282.75V19.5421H258.078V47.0798Z"
        fill="black" />
    <path
        d="M115.012 27.7894H137.728V38.1336H115.012V27.7894ZM115.991 47.0798H141.572V57.7734H102.292V8.84851H140.663V19.5421H115.991V47.0798Z"
        fill="#2E76EB" />
    <path
        d="M162.215 27.7894H184.931V38.1336H162.215V27.7894ZM163.194 47.0798H188.775V57.7734H149.495V8.84851H187.866V19.5421H163.194V47.0798Z"
        fill="#2E76EB" />
</svg>