<svg width="218" height="95" viewBox="0 0 218 95" fill="none" xmlns="http://www.w3.org/2000/svg">
<path d="M0.507324 52.4567H12.4209V33.6041H36.2365V23.9882H12.4209V10.3054H39.4005V0.689575H0.507324V52.4567Z" fill="#2E76EB"/>
<path d="M92.1492 19.4733C92.1492 7.8584 83.5482 0.689575 69.7956 0.689575H47.522V52.4567H59.4355V38.0387H70.3896L80.3156 52.4567H93.1087L81.5607 35.8214C88.2542 32.9378 92.1492 27.2395 92.1492 19.4733ZM69.1331 28.4917H59.4241V10.4548H69.1331C76.4092 10.4548 80.0872 13.7865 80.0872 19.4733C80.0872 25.1601 76.4092 28.4917 69.1331 28.4917Z" fill="#2E76EB"/>
<path d="M113.429 30.8699H137.325V21.5412H113.429V10.3054H140.489V0.689575H101.584V52.4567L117.975 42.8409H113.429V30.8699Z" fill="#2E76EB"/>
<path d="M162.785 10.3054H173.454L189.845 0.689575H150.952V23.5057L162.785 16.5552V10.3054Z" fill="#2E76EB"/>
<path d="M69.3937 94.7124V85.0966H45.9321L29.541 94.7124H69.3937Z" fill="black"/>
<path d="M117.802 52.5612V42.9453L101.411 52.5612H117.802Z" fill="black"/>
<path d="M90.7423 73.1257H114.638V63.8085H90.7423V58.8225L78.9087 65.7616V94.7126H118.761V85.0967H90.7423V73.1257Z" fill="black"/>
<path d="M168.86 50.7115V42.9453H125.546V52.7105H153.189L124.964 86.9462V94.7125H169.957V84.9587H140.692L168.86 50.7115Z" fill="black"/>
<path d="M189.466 85.0966V73.1256H213.362V63.8084H189.466V52.5612H216.526V42.9453H177.632V94.7125H217.485V85.0966H189.466Z" fill="black"/>
</svg>
