<svg width="282" height="53" viewBox="0 0 282 53" fill="none" xmlns="http://www.w3.org/2000/svg">
<path d="M0.794922 50.7943H12.3555V32.5003H35.4654V23.1693H12.3555V9.89198H38.5357V0.561035H0.794922V50.7943Z" fill="#2E76EB"/>
<path d="M89.7214 18.7881C89.7214 7.51744 81.3752 0.561035 68.0301 0.561035H46.4165V50.7943H57.977V36.8034H68.6065L78.2384 50.7943H90.6524L79.4466 34.6519C85.9418 31.8537 89.7214 26.3242 89.7214 18.7881ZM67.3873 27.5394H57.966V10.0369H67.3873C74.4477 10.0369 78.0168 13.2698 78.0168 18.7881C78.0168 24.3064 74.4477 27.5394 67.3873 27.5394Z" fill="#2E76EB"/>
<path d="M110.37 29.847H133.558V20.7948H110.37V9.89198H136.628V0.561035H98.8765V50.7943L114.782 41.4633H110.37V29.847Z" fill="#2E76EB"/>
<path d="M158.265 9.89198H168.617L184.522 0.561035H146.782V22.7011L158.265 15.9565V9.89198Z" fill="#2E76EB"/>
<path d="M137.548 52.2992V42.9683H114.782L98.8765 52.2992H137.548Z" fill="black"/>
<path d="M184.523 11.3969V2.06592L168.617 11.3969H184.523Z" fill="black"/>
<path d="M158.264 31.3519H181.451V22.3108H158.264V17.4725L146.781 24.206V52.2991H185.453V42.9682H158.264V31.3519Z" fill="black"/>
<path d="M234.067 9.60202V2.06592H192.037V11.5418H218.86L191.472 44.7631V52.2992H235.131V42.8344H206.734L234.067 9.60202Z" fill="black"/>
<path d="M254.062 42.9682V31.3519H277.25V22.3108H254.062V11.3969H280.32V2.06592H242.579V52.2992H281.251V42.9682H254.062Z" fill="black"/>
</svg>
